<?xml version="1.0" encoding="UTF-8" standalone="no"?>
<!-- Created with Inkscape (http://www.inkscape.org/) -->

<svg
   width="800"
   height="136"
   viewBox="0 0 211.66667 35.983334"
   version="1.1"
   id="svg1"
   inkscape:version="1.4 (e7c3feb1, 2024-10-09)"
   sodipodi:docname="mxrlogo.svg"
   xmlns:inkscape="http://www.inkscape.org/namespaces/inkscape"
   xmlns:sodipodi="http://sodipodi.sourceforge.net/DTD/sodipodi-0.dtd"
   xmlns="http://www.w3.org/2000/svg"
   xmlns:svg="http://www.w3.org/2000/svg">
  <sodipodi:namedview
     id="namedview1"
     pagecolor="#ffffff"
     bordercolor="#000000"
     borderopacity="0.25"
     inkscape:showpageshadow="2"
     inkscape:pageopacity="0.0"
     inkscape:pagecheckerboard="0"
     inkscape:deskcolor="#d1d1d1"
     inkscape:document-units="mm"
     inkscape:zoom="1.6782331"
     inkscape:cx="401.31493"
     inkscape:cy="125.42953"
     inkscape:window-width="2560"
     inkscape:window-height="1412"
     inkscape:window-x="0"
     inkscape:window-y="28"
     inkscape:window-maximized="0"
     inkscape:current-layer="layer1" />
  <defs
     id="defs1" />
  <g
     inkscape:label="Layer 1"
     inkscape:groupmode="layer"
     id="layer1"
     transform="translate(-142.61042,-132.55625)">
    <path
       d="m 336.49471,139.10572 c -0.28606,0 -0.45785,0.17128 -0.45785,0.45734 v 21.96972 c 0,0.28607 0.17179,0.45785 0.45785,0.45785 h 2.97501 c 0.28606,0 0.45734,-0.17178 0.45734,-0.45785 v -7.20887 h 1.97404 l 1.91668,7.26623 c 0.0572,0.25745 0.20021,0.40049 0.48627,0.40049 h 2.97501 c 0.31467,0 0.48631,-0.17193 0.4005,-0.51521 l -1.97404,-7.49464 c 1.3731,-0.60073 2.08824,-1.85937 2.08824,-3.77599 v -6.97994 c 0,-2.68899 -1.43013,-4.11913 -4.11913,-4.11913 z m 3.43235,3.776 h 2.83238 c 0.74377,0 1.14412,0.40034 1.14412,1.14411 v 5.37797 c 0,0.74377 -0.40035,1.14412 -1.14412,1.14412 h -2.83238 z"
       style="font-size:28.6063px;font-family:Norwester;-inkscape-font-specification:'Norwester, Normal';stroke-width:0;fill:#a2e3c4;fill-opacity:1"
       id="path13" />
    <path
       d="m 322.47748,139.10572 c -0.25746,0 -0.42892,0.17128 -0.42892,0.45734 v 21.96972 c 0,0.28607 0.17146,0.45785 0.42892,0.45785 h 10.527 c 0.34328,0 0.45786,-0.17178 0.45786,-0.45785 v -2.86081 c 0,-0.31467 -0.11458,-0.45734 -0.45786,-0.45734 h -7.1515 v -5.77846 h 5.46375 c 0.28607,0 0.45785,-0.1716 0.45785,-0.48627 v -2.83239 c 0,-0.31467 -0.17178,-0.48627 -0.45785,-0.48627 h -5.46375 v -5.7211 h 7.1515 c 0.34328,0 0.45786,-0.20021 0.45786,-0.48628 v -2.8608 c 0,-0.28606 -0.11458,-0.45734 -0.45786,-0.45734 z"
       style="font-size:28.6063px;font-family:Norwester;-inkscape-font-specification:'Norwester, Normal';stroke-width:0;fill:#a2e3c4;fill-opacity:1"
       id="path12" />
    <path
       d="m 308.2029,139.10572 c -0.31467,0 -0.45786,0.17128 -0.45786,0.45734 v 21.96972 c 0,0.31467 0.14319,0.45785 0.45786,0.45785 h 6.86573 c 2.68899,0 4.11913,-1.43066 4.11913,-4.11965 v -14.61771 c 0,-2.68899 -1.43014,-4.14755 -4.11913,-4.14755 z m 3.43286,3.776 h 2.63188 c 0.74377,0 1.14412,0.40017 1.14412,1.17254 V 157.07 c 0,0.77237 -0.40035,1.14463 -1.14412,1.14463 h -2.63188 z"
       style="font-size:28.6063px;font-family:Norwester;-inkscape-font-specification:'Norwester, Normal';stroke-width:0;fill:#a2e3c4;fill-opacity:1"
       id="path11" />
    <path
       d="m 294.18566,139.10572 c -0.25746,0 -0.42891,0.17128 -0.42891,0.45734 v 21.96972 c 0,0.28607 0.17145,0.45785 0.42891,0.45785 h 10.52701 c 0.34328,0 0.45785,-0.17178 0.45785,-0.45785 v -2.86081 c 0,-0.31467 -0.11457,-0.45734 -0.45785,-0.45734 h -7.1515 v -5.77846 h 5.46375 c 0.28606,0 0.45785,-0.1716 0.45785,-0.48627 v -2.83239 c 0,-0.31467 -0.17179,-0.48627 -0.45785,-0.48627 h -5.46375 v -5.7211 h 7.1515 c 0.34328,0 0.45785,-0.20021 0.45785,-0.48628 v -2.8608 c 0,-0.28606 -0.11457,-0.45734 -0.45785,-0.45734 z"
       style="font-size:28.6063px;font-family:Norwester;-inkscape-font-specification:'Norwester, Normal';stroke-width:0;fill:#a2e3c4;fill-opacity:1"
       id="path10" />
    <path
       d="m 283.57288,139.10572 c -2.68899,0 -4.11913,1.43014 -4.11913,4.11913 v 14.64613 c 0,2.68899 1.43014,4.11965 4.11913,4.11965 h 3.20393 c 2.68899,0 4.11913,-1.43066 4.11913,-4.11965 v -14.64613 c 0,-2.68899 -1.43014,-4.11913 -4.11913,-4.11913 z m 0.8294,3.69022 h 1.65933 c 0.74376,0 1.14412,0.40034 1.14412,1.14411 v 13.21625 c 0,0.77237 -0.40036,1.14412 -1.14412,1.14412 h -1.65933 c -0.74376,0 -1.14411,-0.37175 -1.14411,-1.14412 v -13.21625 c 0,-0.74377 0.40035,-1.14411 1.14411,-1.14411 z"
       style="font-size:28.6063px;font-family:Norwester;-inkscape-font-specification:'Norwester, Normal';stroke-width:0;fill:#a2e3c4;fill-opacity:1"
       id="path9" />
    <path
       d="m 265.86543,139.10572 c -0.28607,0 -0.45734,0.17128 -0.45734,0.45734 v 21.96972 c 0,0.28607 0.17127,0.45785 0.45734,0.45785 h 2.97501 c 0.28607,0 0.45785,-0.17178 0.45785,-0.45785 v -7.20887 h 1.97404 l 1.91668,7.26623 c 0.0572,0.25745 0.20021,0.40049 0.48628,0.40049 h 2.97501 c 0.31467,0 0.48631,-0.17193 0.40049,-0.51521 l -1.97404,-7.49464 c 1.3731,-0.60073 2.08825,-1.85937 2.08825,-3.77599 v -6.97994 c 0,-2.68899 -1.43014,-4.11913 -4.11913,-4.11913 z m 3.43286,3.776 h 2.83187 c 0.74376,0 1.14464,0.40034 1.14464,1.14411 v 5.37797 c 0,0.74377 -0.40088,1.14412 -1.14464,1.14412 h -2.83187 z"
       style="font-size:28.6063px;font-family:Norwester;-inkscape-font-specification:'Norwester, Normal';stroke-width:0;fill:#a2e3c4;fill-opacity:1"
       id="path8" />
    <path
       d="m 237.0305,139.10572 c -0.37188,0 -0.57225,0.22859 -0.54364,0.60048 l 2.34559,21.74079 c 0.0286,0.37189 0.22911,0.54364 0.601,0.54364 h 2.86081 c 0.34327,0 0.54308,-0.17161 0.6289,-0.48628 l 3.00395,-12.9589 2.97501,12.92997 c 0.0858,0.34328 0.28614,0.51521 0.62942,0.51521 h 2.80345 c 0.37188,0 0.57187,-0.17175 0.60048,-0.54364 l 2.46031,-21.74079 c 0.0286,-0.37189 -0.17175,-0.60048 -0.54363,-0.60048 h -2.71767 c -0.34327,0 -0.57187,0.19985 -0.60048,0.54312 l -1.17305,13.38781 h -0.14314 l -2.80345,-13.41623 c -0.0858,-0.34328 -0.28615,-0.5147 -0.62942,-0.5147 h -1.71617 c -0.34328,0 -0.5436,0.17142 -0.62942,0.5147 l -2.83187,13.41623 h -0.14315 l -1.11569,-13.38781 c -0.0286,-0.34327 -0.25721,-0.54312 -0.60048,-0.54312 z"
       style="font-size:28.6063px;font-family:Norwester;-inkscape-font-specification:'Norwester, Normal';stroke-width:0;fill:#a2e3c4;fill-opacity:1"
       id="path7" />
    <path
       d="m 223.49954,139.10572 c -0.25746,0 -0.42891,0.17128 -0.42891,0.45734 v 21.96972 c 0,0.28607 0.17145,0.45785 0.42891,0.45785 h 10.52701 c 0.34327,0 0.45785,-0.17178 0.45785,-0.45785 v -2.86081 c 0,-0.31467 -0.11458,-0.45734 -0.45785,-0.45734 h -7.15151 v -5.77846 h 5.46375 c 0.28606,0 0.45786,-0.1716 0.45786,-0.48627 v -2.83239 c 0,-0.31467 -0.1718,-0.48627 -0.45786,-0.48627 h -5.46375 v -5.7211 h 7.15151 c 0.34327,0 0.45785,-0.20021 0.45785,-0.48628 v -2.8608 c 0,-0.28606 -0.11458,-0.45734 -0.45785,-0.45734 z"
       style="font-size:28.6063px;font-family:Norwester;-inkscape-font-specification:'Norwester, Normal';stroke-width:0;fill:#a2e3c4;fill-opacity:1"
       id="path6" />
    <path
       d="m 209.2539,139.10572 c -0.34328,0 -0.48628,0.17128 -0.48628,0.45734 v 21.96972 c 0,0.28607 0.143,0.45785 0.48628,0.45785 h 2.94607 c 0.28606,0 0.45785,-0.17178 0.45785,-0.45785 v -9.09661 h 3.6618 v 9.09661 c 0,0.28607 0.17126,0.45785 0.45733,0.45785 h 2.94659 c 0.34327,0 0.48628,-0.17178 0.48628,-0.45785 v -21.96972 c 0,-0.28606 -0.14301,-0.45734 -0.48628,-0.45734 h -2.94659 c -0.28607,0 -0.45733,0.17128 -0.45733,0.45734 v 9.09712 h -3.6618 v -9.09712 c 0,-0.28606 -0.17179,-0.45734 -0.45785,-0.45734 z"
       style="font-size:28.6063px;font-family:Norwester;-inkscape-font-specification:'Norwester, Normal';stroke-width:0;fill:#a2e3c4;fill-opacity:1"
       id="path5" />
    <path
       d="m 195.49401,139.10572 c -0.28607,0 -0.45733,0.17128 -0.45733,0.45734 v 2.8608 c 0,0.28607 0.17126,0.45786 0.45733,0.45786 h 3.31866 v 18.65106 c 0,0.31467 0.17127,0.45785 0.45734,0.45785 h 2.97501 c 0.31467,0 0.45786,-0.14318 0.45786,-0.45785 v -18.65106 h 3.31814 c 0.31467,0 0.45785,-0.17179 0.45785,-0.45786 v -2.8608 c 0,-0.28606 -0.14318,-0.45734 -0.45785,-0.45734 z"
       style="font-size:28.6063px;font-family:Norwester;-inkscape-font-specification:'Norwester, Normal';stroke-width:0;fill:#a2e3c4;fill-opacity:1"
       id="path4" />
    <path
       d="m 182.04936,139.10572 c -0.28606,0 -0.45786,0.17128 -0.45786,0.45734 v 2.8608 c 0,0.28607 0.1718,0.45786 0.45786,0.45786 h 3.31814 v 18.65106 c 0,0.31467 0.17178,0.45785 0.45785,0.45785 h 2.97502 c 0.31467,0 0.45733,-0.14318 0.45733,-0.45785 v -18.65106 h 3.31866 c 0.31467,0 0.45786,-0.17179 0.45786,-0.45786 v -2.8608 c 0,-0.28606 -0.14319,-0.45734 -0.45786,-0.45734 z"
       style="font-size:28.6063px;font-family:Norwester;-inkscape-font-specification:'Norwester, Normal';stroke-width:0;fill:#a2e3c4;fill-opacity:1"
       id="path3" />
    <path
       d="m 172.66647,139.10572 c -0.25745,0 -0.42907,0.11443 -0.48628,0.40049 l -4.74906,21.99814 c -0.0858,0.31467 0.0574,0.48628 0.37207,0.48628 h 3.06079 c 0.25745,0 0.40064,-0.14304 0.45786,-0.40049 l 0.77256,-4.17649 h 5.09168 l 0.80098,4.17649 c 0.0572,0.25745 0.2004,0.40049 0.45786,0.40049 h 3.03185 c 0.34328,0 0.4577,-0.17161 0.40049,-0.48628 l -4.74854,-21.99814 c -0.0572,-0.28606 -0.22882,-0.40049 -0.48628,-0.40049 z m 1.97352,5.0059 1.8309,9.98337 h -3.6618 z"
       style="font-size:28.6063px;font-family:Norwester;-inkscape-font-specification:'Norwester, Normal';stroke-width:0;fill:#a2e3c4;fill-opacity:1"
       id="path2" />
    <path
       d="m 149.66684,139.10572 c -0.37188,0 -0.57206,0.20018 -0.57206,0.57206 v 21.74079 c 0,0.37188 0.20018,0.57206 0.57206,0.57206 h 2.63188 c 0.37188,0 0.57206,-0.20018 0.57206,-0.57206 v -12.87312 h 0.19998 l 2.83239,12.92997 c 0.0858,0.34328 0.28615,0.51521 0.62942,0.51521 h 1.40146 c 0.34328,0 0.5436,-0.17193 0.62942,-0.51521 l 2.83187,-12.92997 h 0.2005 v 12.87312 c 0,0.37188 0.20018,0.57206 0.57206,0.57206 h 2.66031 c 0.37188,0 0.57205,-0.20018 0.57205,-0.57206 v -21.74079 c 0,-0.37188 -0.20017,-0.57206 -0.57205,-0.57206 h -3.776 c -0.34328,0 -0.5436,0.17142 -0.62942,0.5147 l -3.17552,14.24616 -3.175,-14.24616 c -0.0858,-0.34328 -0.28614,-0.5147 -0.62942,-0.5147 z"
       style="font-size:28.6063px;font-family:Norwester;-inkscape-font-specification:'Norwester, Normal';stroke-width:0;fill:#a2e3c4;fill-opacity:1"
       id="path1" />
  </g>
</svg>
