<?xml version="1.0" standalone="no"?>
<!DOCTYPE svg PUBLIC "-//W3C//DTD SVG 20010904//EN"
 "http://www.w3.org/TR/2001/REC-SVG-20010904/DTD/svg10.dtd">
<svg version="1.0" xmlns="http://www.w3.org/2000/svg"
 width="700.000000pt" height="700.000000pt" viewBox="0 0 700.000000 700.000000"
 preserveAspectRatio="xMidYMid meet">
<metadata>
Created by potrace 1.14, written by Peter Selinger 2001-2017
</metadata>
<g transform="translate(0.000000,700.000000) scale(0.100000,-0.100000)"
fill="#000000" stroke="none">
<path d="M510 6410 c-48 -13 -70 -35 -84 -80 -10 -37 -13 -570 -12 -2850 1
-2663 2 -2807 19 -2833 41 -63 32 -62 462 -62 430 0 421 -1 462 62 17 26 18
119 18 1693 l1 1665 25 3 c25 3 26 0 58 -143 18 -80 35 -158 37 -173 3 -15 10
-45 16 -67 5 -22 12 -51 15 -65 2 -14 18 -86 34 -160 17 -74 33 -146 35 -160
3 -14 21 -97 41 -185 19 -88 37 -171 40 -185 2 -14 8 -41 13 -60 5 -19 16 -66
24 -105 12 -57 126 -579 142 -650 3 -11 9 -40 14 -65 5 -25 36 -168 69 -318
33 -149 63 -282 65 -295 5 -26 35 -163 42 -192 3 -11 7 -31 10 -45 8 -41 54
-251 69 -315 7 -33 17 -76 20 -95 11 -52 43 -104 78 -126 29 -17 54 -19 269
-19 223 0 238 1 265 21 32 23 69 92 78 144 3 19 10 51 15 70 5 19 11 46 14 60
2 14 25 119 51 235 26 116 49 221 51 235 3 14 7 33 10 42 3 10 7 30 10 45 3
16 12 57 20 93 9 36 18 75 20 88 2 12 34 156 70 320 36 163 67 308 70 321 7
33 23 107 83 381 29 129 54 245 57 257 6 31 100 462 118 543 9 36 36 162 62
280 64 298 61 290 84 290 20 0 20 -18 20 -1672 0 -1641 0 -1674 20 -1705 13
-22 31 -35 57 -41 21 -6 214 -9 438 -8 368 1 403 2 428 19 16 10 32 29 37 43
6 15 10 389 10 958 l0 933 253 -1 252 -1 26 -100 c15 -55 45 -172 69 -260 91
-345 111 -421 114 -435 2 -8 61 -229 130 -490 69 -261 132 -501 140 -532 19
-72 30 -94 63 -116 25 -15 65 -17 443 -18 352 -1 420 1 445 14 17 8 33 20 37
26 14 20 8 80 -16 171 -30 114 -87 327 -136 515 -21 80 -52 199 -69 265 -18
66 -46 172 -62 235 -17 63 -32 122 -34 130 -2 8 -14 56 -28 105 -13 50 -50
189 -81 310 -32 121 -61 230 -66 242 -5 12 -6 24 -2 27 4 2 34 19 67 37 263
143 418 402 452 754 10 104 9 2060 -1 2145 -10 89 -49 247 -75 303 -12 26 -26
58 -31 72 -49 129 -232 307 -385 375 -83 37 -88 39 -143 54 -48 14 -82 21
-205 43 -54 9 -2300 11 -2334 1 -47 -13 -85 -66 -106 -145 -17 -68 -20 -79
-37 -163 -5 -25 -16 -76 -25 -115 -9 -38 -18 -77 -20 -85 -2 -11 -158 -710
-180 -808 -2 -10 -20 -91 -40 -182 -44 -201 -31 -140 -110 -490 -36 -162 -68
-304 -70 -315 -3 -11 -18 -81 -35 -155 -17 -74 -39 -175 -50 -225 -10 -49 -37
-171 -60 -270 -22 -99 -43 -196 -46 -215 -3 -19 -7 -37 -9 -40 -2 -3 -27 -111
-55 -240 -61 -273 -58 -261 -59 -277 -1 -20 -17 -15 -18 5 -1 9 -39 181 -84
382 -45 201 -90 401 -99 445 -10 44 -25 114 -35 155 -9 41 -19 86 -21 100 -3
14 -11 53 -19 88 -16 68 -30 127 -70 307 -14 66 -35 156 -45 200 -10 44 -21
91 -24 105 -2 14 -27 129 -56 255 -28 127 -55 248 -59 270 -5 22 -46 204 -91
405 -45 201 -86 383 -91 405 -4 22 -31 143 -59 269 -48 214 -66 274 -94 301
-39 39 -45 40 -581 41 -286 0 -531 -2 -545 -6z m4875 -964 c110 -21 182 -97
202 -211 5 -28 8 -381 7 -785 -1 -654 -3 -740 -18 -779 -24 -65 -61 -108 -119
-139 l-52 -27 -412 -3 -413 -3 0 974 c0 535 2 976 4 978 8 7 760 3 801 -5z"/>
</g>
</svg>
