<?xml version="1.0" encoding="UTF-8" standalone="no"?>
<!-- Created with Inkscape (http://www.inkscape.org/) -->

<svg
   width="240mm"
   height="240mm"
   viewBox="0 0 240 240"
   version="1.1"
   id="svg1"
   sodipodi:docname="mr-logo.svg"
   inkscape:version="1.3.2 (091e20e, 2023-11-25)"
   inkscape:export-filename="mr-logo.png"
   inkscape:export-xdpi="96"
   inkscape:export-ydpi="96"
   xmlns:inkscape="http://www.inkscape.org/namespaces/inkscape"
   xmlns:sodipodi="http://sodipodi.sourceforge.net/DTD/sodipodi-0.dtd"
   xmlns="http://www.w3.org/2000/svg"
   xmlns:svg="http://www.w3.org/2000/svg">
  <sodipodi:namedview
     id="namedview1"
     pagecolor="#ffffff"
     bordercolor="#000000"
     borderopacity="0.25"
     inkscape:showpageshadow="2"
     inkscape:pageopacity="0.0"
     inkscape:pagecheckerboard="0"
     inkscape:deskcolor="#d1d1d1"
     inkscape:document-units="mm"
     inkscape:zoom="1.0421558"
     inkscape:cx="248.04353"
     inkscape:cy="395.33436"
     inkscape:window-width="2560"
     inkscape:window-height="1387"
     inkscape:window-x="0"
     inkscape:window-y="25"
     inkscape:window-maximized="0"
     inkscape:current-layer="svg1" />
  <defs
     id="defs1" />
  <g
     id="layer1"
     transform="matrix(20,0,0,20,-852.02207,-2013.3862)"
     style="fill:#69dfa6;fill-opacity:1">
    <path
       id="text1"
       style="font-size:19.0228px;font-family:Norwester;-inkscape-font-specification:'Norwester, Normal';text-align:center;letter-spacing:0px;text-anchor:middle;fill:#69dfa6;stroke-width:5.69185;stroke-linejoin:bevel;fill-opacity:1"
       d="m 43.560488,101.66931 c -0.1625,0 -0.249988,0.0875 -0.249988,0.24999 v 9.49996 c 0,0.1625 0.08749,0.25005 0.249988,0.25005 h 1.150017 c 0.1625,0 0.249988,-0.0875 0.249988,-0.25005 v -5.62494 h 0.08746 l 1.237541,5.64998 c 0.0375,0.15 0.124968,0.22501 0.274968,0.22501 h 0.612541 c 0.15,0 0.237467,-0.075 0.274968,-0.22501 l 1.237478,-5.64998 h 0.06877 v 5.67496 c 0,0.125 0.07503,0.20003 0.200028,0.20003 h 1.29996 c 0.125,0 0.200027,-0.075 0.200027,-0.20003 V 108.3193 H 51.3167 l 0.837549,3.17496 c 0.02497,0.11251 0.08749,0.17505 0.212486,0.17505 H 53.6667 c 0.137507,0 0.212486,-0.075 0.174985,-0.22501 l -0.862466,-3.275 c 0.600002,-0.2625 0.912488,-0.8125 0.912488,-1.65 v -3.04999 c 0,-1.175 -0.624996,-1.8 -1.799997,-1.8 h -3.556202 c -0.15,0 -0.23753,0.075 -0.27503,0.22501 l -1.387484,6.22496 -1.387484,-6.22496 c -0.0375,-0.15001 -0.12503,-0.22501 -0.27503,-0.22501 z m 6.89375,1.64999 h 1.23748 c 0.325003,0 0.499975,0.17498 0.499975,0.49998 v 2.34999 c 0,0.325 -0.174972,0.50004 -0.499975,0.50004 h -1.23748 z" />
  </g>
</svg>
